<?xml version="1.0" ?><svg height="72" viewBox="0 0 72 72" width="72" xmlns="http://www.w3.org/2000/svg"><g fill="none" fill-rule="evenodd"><path d="M8,72 L64,72 C68.418278,72 72,68.418278 72,64 L72,8 C72,3.581722 68.418278,-8.11624501e-16 64,0 L8,0 C3.581722,8.11624501e-16 -5.41083001e-16,3.581722 0,8 L0,64 C5.41083001e-16,68.418278 3.581722,72 8,72 Z" fill="#ECECEC"/><g transform="translate(13 25)"><path d="M46.8292683,10.1695828 C46.8292683,15.7864719 42.2171072,20.3418803 36.5173021,20.3418803 C30.8119899,20.3418803 26.1970752,15.7864719 26.1970752,10.1695828 C26.1970752,4.55540841 30.8119899,0 36.5173021,0 C42.2171072,0 46.8292683,4.55540841 46.8292683,10.1695828" fill="#FF007F"/><path d="M20.6294395,10.1695828 C20.6294395,15.7864719 16.0145249,20.3418803 10.3092127,20.3418803 C4.61216113,20.3418803 0,15.7864719 0,10.1695828 C0,4.55540841 4.61216113,0 10.3092127,0 C16.0145249,0 20.6294395,4.55540841 20.6294395,10.1695828" fill="#0960D5"/></g></g></svg>